<svg width="360" height="48" viewBox="0 0 360 48" fill="none" xmlns="http://www.w3.org/2000/svg">
<path d="M6 0.5H354C357.038 0.5 359.5 2.96243 359.5 6V42C359.5 45.0376 357.038 47.5 354 47.5H6C2.96243 47.5 0.5 45.0376 0.5 42V6C0.5 2.96243 2.96243 0.5 6 0.5Z" fill="black"/>
<path d="M6 0.5H354C357.038 0.5 359.5 2.96243 359.5 6V42C359.5 45.0376 357.038 47.5 354 47.5H6C2.96243 47.5 0.5 45.0376 0.5 42V6C0.5 2.96243 2.96243 0.5 6 0.5Z" stroke="black"/>
<path d="M97.7792 22.192C97.7792 22.7573 97.6459 23.2907 97.3792 23.792C97.1126 24.2933 96.6859 24.704 96.0992 25.024C95.5126 25.3333 94.7606 25.488 93.8432 25.488H91.8272V30H90.0032V18.88H93.8432C94.6966 18.88 95.4166 19.0293 96.0032 19.328C96.6006 19.616 97.0432 20.0107 97.3312 20.512C97.6299 21.0133 97.7792 21.5733 97.7792 22.192ZM93.8432 24C94.5366 24 95.0539 23.8453 95.3952 23.536C95.7366 23.216 95.9072 22.768 95.9072 22.192C95.9072 20.976 95.2192 20.368 93.8432 20.368H91.8272V24H93.8432ZM98.9108 25.552C98.9108 24.6667 99.0922 23.8827 99.4548 23.2C99.8282 22.5173 100.33 21.9893 100.959 21.616C101.599 21.232 102.303 21.04 103.071 21.04C103.764 21.04 104.367 21.1787 104.879 21.456C105.402 21.7227 105.818 22.0587 106.127 22.464V21.184H107.967V30H106.127V28.688C105.818 29.104 105.396 29.4507 104.863 29.728C104.33 30.0053 103.722 30.144 103.039 30.144C102.282 30.144 101.588 29.952 100.959 29.568C100.33 29.1733 99.8282 28.6293 99.4548 27.936C99.0922 27.232 98.9108 26.4373 98.9108 25.552ZM106.127 25.584C106.127 24.976 105.999 24.448 105.743 24C105.498 23.552 105.172 23.2107 104.767 22.976C104.362 22.7413 103.924 22.624 103.455 22.624C102.986 22.624 102.548 22.7413 102.143 22.976C101.738 23.2 101.407 23.536 101.151 23.984C100.906 24.4213 100.783 24.944 100.783 25.552C100.783 26.16 100.906 26.6933 101.151 27.152C101.407 27.6107 101.738 27.9627 102.143 28.208C102.559 28.4427 102.996 28.56 103.455 28.56C103.924 28.56 104.362 28.4427 104.767 28.208C105.172 27.9733 105.498 27.632 105.743 27.184C105.999 26.7253 106.127 26.192 106.127 25.584ZM118.299 21.184L112.891 34.144H111.003L112.795 29.856L109.323 21.184H111.355L113.835 27.904L116.411 21.184H118.299ZM135.671 21.184L132.935 30H131.015L129.239 23.488L127.463 30H125.543L122.791 21.184H124.647L126.487 28.272L128.359 21.184H130.263L132.055 28.24L133.879 21.184H135.671ZM137.962 20.016C137.632 20.016 137.354 19.904 137.13 19.68C136.906 19.456 136.794 19.1787 136.794 18.848C136.794 18.5173 136.906 18.24 137.13 18.016C137.354 17.792 137.632 17.68 137.962 17.68C138.282 17.68 138.554 17.792 138.778 18.016C139.002 18.24 139.114 18.5173 139.114 18.848C139.114 19.1787 139.002 19.456 138.778 19.68C138.554 19.904 138.282 20.016 137.962 20.016ZM138.858 21.184V30H137.034V21.184H138.858ZM143.381 22.672V27.552C143.381 27.8827 143.456 28.1227 143.605 28.272C143.765 28.4107 144.032 28.48 144.405 28.48H145.525V30H144.085C143.264 30 142.635 29.808 142.197 29.424C141.76 29.04 141.541 28.416 141.541 27.552V22.672H140.501V21.184H141.541V18.992H143.381V21.184H145.525V22.672H143.381ZM151.766 21.04C152.438 21.04 153.036 21.184 153.558 21.472C154.092 21.76 154.508 22.1867 154.806 22.752C155.116 23.3173 155.27 24 155.27 24.8V30H153.462V25.072C153.462 24.2827 153.265 23.68 152.87 23.264C152.476 22.8373 151.937 22.624 151.254 22.624C150.572 22.624 150.028 22.8373 149.622 23.264C149.228 23.68 149.03 24.2827 149.03 25.072V30H147.206V18.16H149.03V22.208C149.34 21.8347 149.729 21.5467 150.198 21.344C150.678 21.1413 151.201 21.04 151.766 21.04Z" fill="white"/>
<g clip-path="url(#clip0_1_8005)">
<path d="M239.32 18.7959H243.177C245.507 18.7959 247.236 20.5863 247.236 22.8078C247.236 25.0294 245.509 26.8362 243.163 26.8362H241.42V30.0607H239.322V18.7959H239.32ZM241.417 20.7409V24.8911H243.023C244.272 24.8911 245.122 23.9655 245.122 22.8078C245.122 21.6502 244.274 20.7409 243.023 20.7409H241.417Z" fill="white"/>
<path d="M247.794 25.5543C247.794 22.5618 249.985 20.8487 252.267 20.8487C253.455 20.8487 254.519 21.3432 255.168 22.1142V21.0339H257.252V30.0607H255.168V28.889C254.505 29.7233 253.425 30.2482 252.237 30.2482C250.062 30.2482 247.794 28.5047 247.794 25.5567V25.5543ZM255.276 25.5239C255.276 23.996 254.119 22.7469 252.577 22.7469C251.035 22.7469 249.847 23.9655 249.847 25.5239C249.847 27.0822 251.035 28.3313 252.577 28.3313C254.119 28.3313 255.276 27.0822 255.276 25.5239Z" fill="white"/>
<path d="M261.789 29.6108L258.086 21.0315H260.308L262.822 27.1104L265.198 21.0315H267.39L262.004 34.225H259.891L261.789 29.6108Z" fill="white"/>
<path d="M221.476 19.11L221.619 27.38H221.562L219.139 19.11H215.23V29.5383H217.82L217.675 20.9824H217.733L220.334 29.5383H224.086V19.11H221.476Z" fill="white"/>
<path d="M171.881 19.11L169.927 29.6461H172.774L174.215 20.0872L174.274 20.0849L175.68 29.6461H178.509L176.568 19.11H171.881Z" fill="white"/>
<path d="M187.8 19.11L186.5 27.1667H186.441L185.143 19.11H180.845L180.613 29.6461H183.249L183.315 20.1739H183.374L185.134 29.6461H187.807L189.567 20.1763L189.626 20.1739L189.692 29.6461H192.328L192.096 19.11H187.8Z" fill="white"/>
<path d="M165.493 26.6746C165.596 26.93 165.563 27.2558 165.514 27.455C165.428 27.8065 165.191 28.165 164.488 28.165C163.829 28.165 163.429 27.783 163.429 27.2089V26.1872H160.6V27.0003C160.6 29.3508 162.449 30.0608 164.429 30.0608C166.409 30.0608 167.902 29.4117 168.153 27.6518C168.282 26.7425 168.186 26.1473 168.141 25.9247C167.696 23.7195 163.698 23.061 163.401 21.826C163.351 21.6128 163.363 21.3902 163.389 21.273C163.464 20.9355 163.691 20.5653 164.352 20.5653C164.968 20.5653 165.331 20.9449 165.331 21.519V22.1729H167.961V21.43C167.961 19.1334 165.899 18.7749 164.408 18.7749C162.536 18.7749 161.003 19.3959 160.724 21.1136C160.647 21.5823 160.638 22.0041 160.748 22.5337C161.205 24.6874 164.95 25.3107 165.491 26.6722" fill="white"/>
<path d="M199.747 26.6535C199.848 26.9066 199.818 27.2276 199.768 27.4245C199.684 27.7713 199.447 28.1252 198.751 28.1252C198.097 28.1252 197.701 27.7479 197.701 27.1784V26.1684H194.903V26.9722C194.903 29.2992 196.734 30.0023 198.695 30.0023C200.656 30.0023 202.133 29.3602 202.381 27.6166C202.508 26.7168 202.414 26.1262 202.37 25.9059C201.929 23.7219 197.971 23.0704 197.678 21.8495C197.626 21.6386 197.64 21.4206 197.664 21.3034C197.739 20.9683 197.966 20.6028 198.618 20.6028C199.232 20.6028 199.588 20.9777 199.588 21.5472V22.1916H202.191V21.4581C202.191 19.185 200.15 18.8311 198.674 18.8311C196.82 18.8311 195.304 19.4451 195.028 21.1464C194.95 21.6128 194.941 22.0276 195.051 22.5525C195.501 24.685 199.211 25.3013 199.747 26.6512" fill="white"/>
<path d="M208.591 28.0689C209.325 28.0689 209.55 27.5651 209.601 27.305C209.625 27.1925 209.627 27.0378 209.627 26.9019V19.1077H212.294V26.6629C212.296 26.8574 212.278 27.2534 212.268 27.3565C212.086 29.3227 210.529 29.9601 208.594 29.9601C206.658 29.9601 205.102 29.3227 204.917 27.3565C204.908 27.2534 204.886 26.8574 204.893 26.6629V19.1077H207.558V26.9019C207.556 27.0378 207.56 27.1901 207.584 27.305C207.635 27.5651 207.86 28.0689 208.594 28.0689" fill="white"/>
<path d="M230.566 27.9588C231.33 27.9588 231.594 27.476 231.641 27.1948C231.662 27.0753 231.667 26.9277 231.667 26.7941V25.2638H230.587V23.7289H234.32V26.5527C234.32 26.7519 234.313 26.8949 234.282 27.2464C234.109 29.1657 232.445 29.8499 230.577 29.8499C228.71 29.8499 227.048 29.1657 226.872 27.2464C226.842 26.8972 226.837 26.7519 226.835 26.5527V22.1213C226.835 21.9338 226.858 21.6034 226.879 21.4276C227.114 19.4592 228.71 18.8241 230.577 18.8241C232.445 18.8241 234.081 19.4521 234.275 21.4276C234.308 21.7628 234.299 22.1213 234.299 22.1213V22.4728H231.641V21.8823C231.641 21.8823 231.641 21.6315 231.609 21.4815C231.562 21.2495 231.36 20.7176 230.556 20.7176C229.753 20.7176 229.565 21.2214 229.506 21.4815C229.476 21.6198 229.464 21.8073 229.464 21.9807V26.7964C229.464 26.93 229.469 27.0777 229.488 27.1972C229.537 27.4784 229.804 27.9611 230.566 27.9611" fill="white"/>
</g>
<defs>
<clipPath id="clip0_1_8005">
<rect width="110.8" height="15.4502" fill="white" transform="translate(160.6 18.7749)"/>
</clipPath>
</defs>
</svg>
